HIERARCHY
ROOT Hips
{
	OFFSET 0.00000 0.00000 0.00000
	CHANNELS 6 Xposition Yposition Zposition Yrotation Zrotation Xrotation 
	JOINT Lumbar
	{
		OFFSET 0 0 0
		CHANNELS 3 Zrotation Xrotation Yrotation
		JOINT Neck
		{
			OFFSET 0.00 0.2701 0.00
			CHANNELS 3 Zrotation Xrotation Yrotation
			End Site
			{
				OFFSET 0.00 0.1379 0.00
			}
		}
		JOINT RightShoulder
		{
			OFFSET 0.0119 0.2289 0.1181
			CHANNELS 3 Zrotation Xrotation Yrotation
			JOINT RightElbow
			{
				OFFSET 0.00 -0.1475 0.00
				CHANNELS 2 Zrotation Yrotation
				JOINT RightWrist
				{
					OFFSET 0.00 -0.1605 0.00
					CHANNELS 2 Zrotation Xrotation
					End Site
					{
						OFFSET 0.0040 -0.1068 0.0006
					}
				}
			}
		}
		JOINT LeftShoulder
		{
			OFFSET 0.0119 0.2289 -0.1181
			CHANNELS 3 Zrotation Xrotation Yrotation
			JOINT LeftElbow
			{
				OFFSET 0.00 -0.1475 0.00
				CHANNELS 2 Zrotation Yrotation
				JOINT LeftWrist
				{
					OFFSET 0.00 -0.1605 0.00
					CHANNELS 2 Zrotation Xrotation
					End Site
					{
						OFFSET 0.0040 -0.1068 -0.0006
					}
				}
			}
		}
	}
	JOINT RightHip
	{
		OFFSET 0.0316 -0.0424 0.0458
		CHANNELS 3 Zrotation Xrotation Yrotation
		JOINT RightKnee
		{
			OFFSET 0.00 -0.2438 0.00
			CHANNELS 1 Zrotation
			JOINT RightAnkle
			{
				OFFSET 0.00 -0.2449 0.00
				CHANNELS 3 Zrotation Xrotation Yrotation
				End Site
				{
					OFFSET 0.1237 -0.0542 0.0051
				}
			}
		}
	}
	JOINT LeftHip
	{
		OFFSET 0.0316 -0.0424 -0.0458
		CHANNELS 3 Zrotation Xrotation Yrotation
		JOINT LeftKnee
		{
			OFFSET 0.00 -0.2438 0.00
			CHANNELS 1 Zrotation
			JOINT LeftAnkle
			{
				OFFSET 0.00 -0.2449 0.00
				CHANNELS 3 Zrotation Xrotation Yrotation
				End Site
				{
					OFFSET 0.1237 -0.0542 -0.0051
				}
			}
		}
	}
}
MOTION
Frames: 27
Frame Time: 0.02
0.1091 0.02915 -0.09032 408.77321 -18.63949 -11.63346 38.61801 6.17259 -6.05835 -22.00922 12.41536 -2.1199 35.08396 -64.69158 14.24068 43.9737 83.98154 1.31757 1.1706 -42.11622 20.67935 -21.27564 67.02111 -93.54324 10.08234 -0.55479 25.9756 -0.84732 -7.86285 -18.42 -7.58525 -2.76717 -3.61081 31.10521 15.54517 1.28348 -24.70318 -10.1145 3.16406 3.9507
0.10733 0.02887 -0.09453 408.46411 -18.47532 -11.73718 38.96159 6.04335 -6.07655 -21.81241 12.3473 -2.1199 30.86118 -63.42014 9.69785 45.34833 83.72215 1.1565 0.74432 -42.18603 20.20842 -20.77996 66.97226 -93.46223 9.82715 -0.60146 25.52176 -1.28134 -8.65006 -18.19051 -7.55786 -2.6441 -3.5528 30.50142 15.0784 0.76633 -24.59881 -10.05355 3.28074 4.00513
0.10487 0.02872 -0.09868 408.29382 -18.36314 -11.77251 39.21955 5.86627 -6.19737 -21.58756 12.30147 -2.1199 26.44225 -62.21988 5.23658 47.18723 83.4711 1.14384 0.14419 -42.29872 19.59843 -20.1243 66.84501 -93.38928 9.5582 -0.65457 25.11804 -1.85465 -9.51399 -17.88671 -7.56429 -2.51323 -3.4951 30.06143 14.46003 0.31767 -24.5141 -9.99483 3.37411 4.04819
0.10269 0.02848 -0.10284 408.05774 -18.22377 -11.83695 39.50489 5.71515 -6.26878 -21.37836 12.24519 -2.1199 22.16624 -60.98676 0.79222 48.79555 83.22016 1.05281 -0.35677 -42.40253 19.06836 -19.5513 66.76664 -93.31474 9.30002 -0.70393 24.69763 -2.3638 -10.30204 -17.62413 -7.55869 -2.3901 -3.43926 29.55132 13.9108 -0.13921 -24.42911 -9.93307 3.47693 4.0957
0.10067 0.02834 -0.10706 407.83272 -18.09986 -11.91109 39.84172 5.54807 -6.35102 -21.15918 12.18838 -2.1199 17.63997 -59.7552 -3.90278 50.50301 82.9503 1.00966 -0.94201 -42.46346 18.46231 -18.93138 66.63251 -93.23995 9.02593 -0.75777 24.25038 -2.87769 -11.27029 -17.32871 -7.53831 -2.24882 -3.37465 29.02374 13.35611 -0.70019 -24.30493 -9.87821 3.58644 4.14705
0.09814 0.02804 -0.11113 407.61737 -17.95485 -11.94775 40.04885 5.4022 -6.43495 -20.95473 12.13884 -2.1199 13.6027 -58.53922 -8.04111 52.10505 82.72201 0.90157 -1.39377 -42.62205 17.98275 -18.3732 66.59461 -93.18119 8.78353 -0.80698 23.87223 -3.41563 -11.88132 -17.08716 -7.55681 -2.14331 -3.32832 28.56984 12.77853 -1.02197 -24.2674 -9.80974 3.67549 4.18723
0.09442 0.02734 -0.11483 407.40062 -17.75252 -11.90406 39.9321 5.32598 -6.50523 -20.77936 12.10221 -2.1199 10.89815 -57.32816 -10.74121 53.33736 82.61626 0.57569 -1.42859 -43.05322 17.89666 -18.02372 66.85655 -92.94888 8.59308 -0.79622 23.66361 -3.96969 -11.45396 -16.98237 -7.67705 -2.14314 -3.33478 28.29588 12.174 -0.74354 -24.47159 -9.70824 3.71745 4.2013
0.09021 0.02647 -0.11838 407.18834 -17.52502 -11.82392 39.68545 5.27252 -6.57326 -20.62244 12.07254 -2.1199 8.70746 -56.13409 -12.86648 54.43897 82.55101 0.17979 -1.32416 -43.57836 17.94175 -17.74307 67.21527 -92.76325 8.44022 -0.78722 23.52544 -4.54539 -10.66865 -16.94096 -7.83502 -2.17861 -3.35933 28.08765 11.55217 -0.2206 -24.76087 -9.59252 3.73886 4.20414
0.0862 0.02566 -0.12199 406.96967 -17.29979 -11.75585 39.48883 5.2089 -6.63725 -20.46889 12.04131 -2.1199 6.32659 -54.94553 -15.20163 55.57581 82.46085 -0.18333 -1.28743 -44.05188 17.92088 -17.43174 67.52027 -92.70086 8.29612 -0.80806 23.35975 -5.12198 -10.06826 -16.88857 -7.97395 -2.19469 -3.37403 27.83827 10.9398 0.2227 -25.0076 -9.47993 3.76686 4.21066
0.08225 0.02494 -0.12562 406.77223 -17.11378 -11.70342 39.32571 5.14326 -6.7235 -20.26573 12.00478 -2.1199 3.75437 -53.70329 -17.75316 56.83181 82.39711 -0.54666 -1.23835 -44.56552 17.92143 -17.11079 67.8643 -92.05209 8.04705 -0.70457 23.17296 -5.6599 -9.37911 -16.75345 -8.1215 -2.22349 -3.39533 27.64129 10.31647 0.54575 -25.27358 -9.38046 3.80511 4.22248
0.07808 0.024 -0.12916 406.53236 -16.84106 -11.61186 39.06502 5.08735 -6.76488 -20.16949 11.97974 -2.1199 1.70684 -52.57636 -19.71581 57.80162 82.28945 -0.92642 -1.17939 -45.01613 17.91088 -16.83009 68.15021 -92.60708 8.02006 -0.85446 23.05106 -6.27955 -8.78588 -16.81283 -8.26026 -2.23498 -3.40751 27.34983 9.7124 1.1635 -25.51658 -9.25151 3.81813 4.22113
0.07337 0.0225 -0.13248 406.15285 -16.32193 -11.41128 38.55128 5.05683 -6.65429 -20.3732 11.99236 -2.1199 0.97038 -51.75953 -20.21577 58.01768 82.0372 -1.34916 -1.12874 -45.27994 17.83426 -16.63 68.25946 -96.71364 8.64517 -1.75285 23.04922 -7.13634 -8.571 -17.34019 -8.35948 -2.18472 -3.38722 26.77144 9.18041 2.64859 -25.70011 -9.03399 3.7603 4.18258
0.06846 0.0208 -0.1357 405.7345 -15.71933 -11.17502 37.94789 5.03455 -6.5039 -20.68182 12.01459 -2.1199 0.74629 -51.0583 -20.13971 57.94722 81.74196 -1.78355 -1.07178 -45.47507 17.74354 -16.47164 68.30594 -101.98196 9.48334 -2.89612 23.11767 -8.07025 -8.46095 -18.07058 -8.44917 -2.11686 -3.35766 26.09751 8.66735 4.40191 -25.85316 -8.78913 3.67885 4.13178
0.06366 0.01921 -0.13895 405.34636 -15.16236 -10.96155 37.3951 5.0063 -6.38945 -20.93714 12.02752 -2.1199 0.29815 -50.30684 -20.31195 58.00226 81.47497 -2.20428 -1.01587 -45.6945 17.6618 -16.30365 68.37657 -106.56579 10.19273 -3.89595 23.18132 -8.95782 -8.28399 -18.74471 -8.54744 -2.06048 -3.33423 25.47201 8.13563 5.95572 -26.00338 -8.56396 3.61265 4.08912
0.05876 0.01754 -0.14228 404.90251 -14.56905 -10.71786 36.79295 4.98912 -6.19782 -21.21881 12.06225 -2.11991 -0.1643 -49.54736 -20.51819 58.072 81.17201 -2.66458 -0.96296 -45.94583 17.57256 -16.09755 68.46879 -111.82578 11.03915 -5.03489 23.13342 -9.89613 -8.17105 -19.27272 -8.63049 -1.9905 -3.30334 24.82455 7.6419 7.83921 -26.22568 -8.30827 3.5275 4.03565
0.05405 0.01599 -0.14541 404.56909 -14.03571 -10.53055 36.27797 4.9494 -6.15973 -21.46779 12.05288 -2.11991 -0.48829 -48.83047 -20.52781 58.04591 80.93401 -3.04194 -0.904 -46.1139 17.49534 -15.98113 68.50018 -115.93554 11.64926 -5.93804 23.33291 -10.74397 -7.96044 -20.14775 -8.74073 -1.94438 -3.28557 24.20329 7.07852 9.10477 -26.29118 -8.10903 3.47542 4.00135
0.04982 0.01478 -0.14806 404.51848 -13.65512 -10.49471 35.99158 4.85466 -6.53501 -21.62203 11.92691 -2.11991 -0.50196 -48.21518 -20.10671 57.81321 80.87936 -3.20813 -0.83109 -46.06194 17.44136 -16.09059 68.37585 -116.74468 11.56552 -6.16864 24.20305 -11.34701 -7.40138 -21.97033 -8.94316 -1.96653 -3.30606 23.64128 6.27689 8.52629 -25.91562 -8.07963 3.52956 4.02813
0.04582 0.01372 -0.1505 404.58632 -13.34342 -10.51867 35.80222 4.73471 -7.06895 -21.73576 11.7548 -2.11991 -0.40606 -47.63697 -19.51488 57.49566 80.89273 -3.28649 -0.75278 -45.92934 17.40144 -16.29011 68.19258 -116.33592 11.23613 -6.14835 25.31742 -11.8519 -6.75072 -24.12627 -9.17028 -2.01336 -3.33996 23.11433 5.4116 7.32902 -25.38533 -8.10678 3.61619 4.07374
0.04178 0.01262 -0.15303 404.62052 -13.02299 -10.52491 35.59244 4.62066 -7.54489 -21.85393 11.59886 -2.11991 -0.39846 -47.03293 -19.02427 57.22696 80.87891 -3.39085 -0.67679 -45.83777 17.36369 -16.45636 68.03783 -116.36721 11.00976 -6.21505 26.31785 -12.3858 -6.18038 -26.10532 -9.37628 -2.05007 -3.36783 22.59628 4.60359 6.46095 -24.93624 -8.10325 3.68206 4.10741
0.03746 0.01138 -0.1556 404.56771 -12.6071 -10.49313 35.28279 4.53204 -7.96413 -22.03443 11.46353 -2.11991 -0.21191 -46.46845 -18.41758 56.90949 80.84735 -3.55347 -0.60094 -45.7255 17.29092 -16.59412 67.87358 -116.87752 10.82018 -6.3959 27.33759 -12.98773 -5.45584 -28.20391 -9.624 -2.08197 -3.39532 21.97451 3.67959 5.39934 -24.44211 -8.11945 3.77239 4.15488
0.03378 0.01048 -0.15802 404.72526 -12.404 -10.55122 35.20123 4.38225 -8.53434 -22.0745 11.27419 -2.11991 -0.37652 -45.83184 -18.01451 56.67124 80.87015 -3.57494 -0.52375 -45.63791 17.29268 -16.80911 67.71601 -116.13646 10.50169 -6.2869 28.36874 -13.42431 -5.02223 -30.12351 -9.7905 -2.12947 -3.42666 21.57278 2.97801 4.59096 -24.00307 -8.10875 3.81981 4.17829
0.03177 0.01054 -0.16009 405.42992 -12.80279 -10.87867 35.76313 4.08948 -9.52754 -21.73332 10.947 -2.11991 -1.5601 -44.96193 -18.26024 56.72365 81.0202 -3.21792 -0.44316 -45.639 17.51333 -17.24099 67.59012 -111.77776 9.80613 -5.34246 29.41809 -13.4212 -5.47903 -31.52122 -9.72926 -2.21822 -3.46761 21.81992 2.94022 4.62616 -23.776 -8.00688 3.74098 4.13031
0.03039 0.01094 -0.16201 406.34255 -13.40834 -11.28887 36.54525 3.7335 -10.65829 -21.25263 10.5671 -2.11991 -3.09883 -44.02293 -18.70914 56.84964 81.22364 -2.72406 -0.3616 -45.66731 17.80564 -17.74286 67.47312 -106.26885 9.00026 -4.12925 30.46169 -13.25543 -6.22127 -32.71582 -9.58507 -2.32099 -3.51156 22.27953 3.12298 4.93722 -23.60696 -7.87672 3.61799 4.05763
0.02874 0.01116 -0.16399 407.1642 -13.89872 -11.63678 37.20183 3.39194 -11.69772 -20.8371 10.21115 -2.11991 -4.46348 -43.1305 -19.0415 56.91105 81.40732 -2.2991 -0.28121 -45.6837 18.05419 -18.19515 67.35366 -101.59885 8.3011 -3.10425 31.47681 -13.16918 -6.78732 -33.96751 -9.47711 -2.41484 -3.55279 22.60827 3.1811 5.12557 -23.39558 -7.76165 3.51511 3.99652
0.02703 0.0115 -0.166 407.97801 -14.47939 -12.08736 37.96701 3.10499 -12.86728 -20.41151 9.8532 -2.11991 -5.87945 -42.1725 -19.47896 57.10472 81.57568 -1.84144 -0.19767 -45.69774 18.34987 -18.72405 67.22709 -95.60533 7.36761 -1.80197 32.63084 -13.05837 -7.538 -35.38118 -9.37587 -2.52083 -3.60046 23.07859 3.33605 5.28244 -23.24131 -7.63905 3.41293 3.93448
0.02561 0.01166 -0.16791 408.85227 -14.92223 -12.34747 38.55981 2.6958 -13.79267 -19.97588 9.488 -2.11992 -7.27191 -41.33781 -19.73647 57.03658 81.78605 -1.42216 -0.12037 -45.72118 18.565 -19.11083 67.11612 -92.04442 6.88291 -1.0038 33.49218 -12.95826 -7.98368 -36.40292 -9.24105 -2.60389 -3.63494 23.30959 3.34757 5.57699 -22.99004 -7.52476 3.29873 3.86844
0.02484 0.01127 -0.16957 409.87605 -14.91537 -12.02108 38.59707 1.90998 -14.04015 -19.53269 9.11294 -2.11992 -8.53645 -40.82903 -19.54522 56.27408 82.11489 -1.12755 -0.06225 -45.78964 18.53387 -19.07057 67.06502 -96.07081 7.80825 -1.77688 33.53364 -12.95525 -7.42338 -36.40788 -9.03009 -2.62596 -3.63488 22.7775 2.8645 6.20021 -22.402 -7.43966 3.15887 3.79569
